<svg id="Layer_1" data-name="Layer 1" xmlns="http://www.w3.org/2000/svg" viewBox="0 0 144.18 128.5"><defs><style>.cls-1{fill:#ef3c58;}</style></defs><title>pocket</title><path class="cls-1" d="M115.62,16.59H28.94a10.1,10.1,0,0,0-10.32,10V58.62c0,29.08,24,53.29,53.66,53.29a53.49,53.49,0,0,0,53.28-53.29V26.54A9.89,9.89,0,0,0,115.62,16.59Zm-13,39.78-25.51,24a6.69,6.69,0,0,1-4.88,2.06A7.23,7.23,0,0,1,67,80.39l-25.14-24a7.6,7.6,0,0,1,0-10.51c2.82-2.63,7.51-3,10.32,0L72.28,65.19,92.73,45.86c2.63-3,7.32-2.63,9.94,0A8,8,0,0,1,102.67,56.37Z"/></svg>