<svg viewBox="0 0 543.01 325.13" xmlns="http://www.w3.org/2000/svg">
  <clipPath id="a">
    <path d="M39.81 0h481.38v324.38H39.81z"/>
  </clipPath>
  <path d="M58 12.13h445v288H58z" fill="#ccc"/>
  <path d="M59 30.13h443v269H59z" fill="#fff"/>
  <path d="M59 29.13h443v18H59z" fill="#dedee5"/>
  <path d="M133.87 34.13h282.27c1 0 1.86.47 1.86 1.06v5.87c0 .59-.83 1.07-1.86 1.07H133.87c-1 0-1.87-.48-1.87-1.07v-5.87c0-.59.84-1.06 1.87-1.06z" fill="#fff" fill-rule="evenodd"/>
  <path d="M104 16.13h85v14h-85z" fill="#dedee5"/>
  <path d="M104 16.13h85v2h-85z" fill="#3b88c8"/>
  <g fill="#202020">
    <path d="M35.46 318.61l1.58.18c-.04-.07-.43-.15-1.58-.18zm398.61-.06h.37c-.26-.03-.35-.02-.37 0zm-337.4 6.26h-.09l-.41.05z"/>
    <path d="M16.34 324.31c21.08.22 26.68 1.08 48.52.74 10.43.07 21.54-.13 31.73-.23 4.83-.67 13.37 0 19.1-.57l2.21.38a32.84 32.84 0 016.27-.12l-.12.11c2.94-.29 6.26-.12 7.73-.26l-.13.11 3.58-.05-.62.16c5.14-.31 10.44-.32 15.1-.18l-.39-.46c10 .51 13.62-.44 22.62.17l-.12.11c11.37-1.21 18 .83 29.71-.32-1.46.14.63.24.51.35 5.39-.14 11.17-.2 11.25-1.1 3.94 0 3.21.28 3.72.63 0-.39 3.4-.56 6.47-.58l-1.42.15 8.8-.14-1.72-.74c4.67.21 1.19.91 5.66.73l-.06-.62c6.46.12 10.25 1.06 16.5 1.51 26 .26 53.9-1.31 78.08-.22l1.07.46c.46.68 6.66-1 7.59-.37l2.81-.31c.79.12 2.45.25 1 .4a25.49 25.49 0 004.53-.29l2.8.42c10.26.32 19-.49 29.78-.33 13 .86 37.37.07 51.44-.38 19.77-1 42.77 1.68 63 .52a7.68 7.68 0 002.35-.19l18.52.09h7.61l21.13-.1-12.36-7.07-5.95-3.35-2.82-1.57-1.35-.75-1-.56a92.3 92.3 0 00-10.13-4.91c-1.93-.67-2.05-.15.75 2.24 1.39 1.19 3.52 2.86 6.5 5.07 1.74 1.25 2.65 2 3.62 2.85a18 18 0 012.09 2l-.6-.18.89.67a38.7 38.7 0 00-4.17-.11c-.52 0-1 .08-1.6.17-.09.05-1.1.1-1.79.16l-2.26.21c-1.11-.91-8.33-.09-10.7-.39l.22-.07c-6.19.71-12.74-.58-18.7 0a3 3 0 011.73-.34c-4.35.12-10.28.32-10.61-.21-10.38.14-24.85-.11-31.5.74l.46-.15c-3.79.57-4.9.09-9.14.37-.23-.07-.54-.1-.49-.13-4.12.56-12.05.08-15.38.33l-.21-.36-8.22.08 3.07.08c-1.06 1-6.21-.61-12.17 0-5.58-.12-11.31 2-17.11 1.54-2.76.45 2.43-.74-1.69-.39-.13-.51 1.93-.32.86-.72-4 .24-6.65-.51-11.65-.17l-.2-.4c-6.53.72-12.31-.51-16.66.17-6.73.32-4.51-1.17-11.52-.4l-2.72-.53c-3-.08-2.14.65-5.47.4.21-.33-4.2-.27-2.25-.59-7.52-.52-15.27.75-25.18-.14-2.16.65-7.14.26-8.75.75-.27-.28-10-.05-4.39-.66.48-.05 1.33 0 1.27.07l.67-.39c-5.65-.73-10.26.4-15.86.29 1.66.13 3.87.1 2.39.37l-5.19-.06 1.08-.32-7.74-.19 1.07.4c-3.79-.2-5.12-.89-9.39-.31-1.93.31 3.59.54-.41.67-5.06-.28-12.65-.69-19.11-.81.61.45-1.13.44-2.92.53l-.2-.39c-6.86.54-2.52-.87-9.33-.43l.61-.28-1.8.82c-6.14.79-3.31-.81-10.14.25 2.7-.06 1.27.87-2 .69l.84-.38a33.42 33.42 0 01-3.67.16c1.09-.2.57-.55-2.13-.49l1.82-.47-5.11.69c-3.94-.41-10.19.11-11.82-.43 0 0-8.48-.26-10.42.32 1.7-.36-3-.5-1.64-.93a49.53 49.53 0 01-11.29.31h.49c-9.61-.45-16.44.62-25.06.07.4.46-4.16.21-3 .79-8.92.58-16.27-1.18-19.49.62-4.06.09-4.81-.43-6.91-.51l1-.1c-7.6.15-9.81.17-15.46.13-2.82.17-3.26 1-8.32.81 1.63-.33-.43-.27-2.32-.27 1.21-.05 1.58-.17-.9-.39a10.35 10.35 0 01-1.4.22s-.12 0-.07-.08c-3.16.12-2.6.22-1.14.27-.07.05 0 .12.5.2-3.28-.42-9.13 0-9.52-.54-9.49.13-16.27.73-24.17.95-.88-.3 1-.56 3.26-.67l-5.61.11c0-.43 3.22-.25 4.94-.34-6.67-.68-13.75.69-21.57.06l-1.62.33-.47-.05a8.83 8.83 0 01-2.89.47c-1.11-.37.08-.85-3.79-.83-3.06-.36-8.7.18-12.7.38 2.16.06 1.46.27.53.39-1.94 0-3-.35-4.55-.19l-.19-.5c.76.47-5.06.51-5.77.71-1.1-.37 3-.32 3.49-.59H4.16v.44c0 .25 0 .4-.05.59s-.06.34-.09.52-.1.3-.11.38a.47.47 0 01-.07.12.1.1 0 010 .06c-.05 0 .16 0 .35.3a7 7 0 01.7 1.05l.22.37.2-.09c.18-.08.43-.18.71-.28.56-.21 1.29-.45 2.19-.74 3.8-1.53-.86-.23.89-1.21A84 84 0 0120 317l-1.4-.08a89.82 89.82 0 0115.14-3.77c24.36-8 26.73-9.73 22.94-9.64S43 305.78 43 305.78c-9.9 2-17.3 3.93-25.12 6.26-3.93 1.19-7.89 2.4-12.48 4-.58.21-1.17.42-1.83.69-.34.15-.64.26-1.19.55l-.25.13-.14.09-.2.12h-.08l-.15.11-.17.14-.08.07-.13.12a3.27 3.27 0 00-.3.35l-.15.19s-.12.19-.23.37a3.83 3.83 0 00-.39 1.12A3.68 3.68 0 000 321a4.16 4.16 0 00.21 1.05 3 3 0 00.39.76 4.07 4.07 0 00.41.52 3.92 3.92 0 00.83.66 2.82 2.82 0 00.46.23 2.84 2.84 0 00.38.14l.43.11h.27a2.06 2.06 0 00.38 0H4l3.89-.1z"/>
  </g>
</svg>
