<svg width="453" height="42" viewBox="0 0 453 42" fill="none" xmlns="http://www.w3.org/2000/svg">
<path d="M430.546 35.2012C412.553 35.0227 407.782 34.3425 389.134 34.6175C380.239 34.5644 370.746 34.7188 362.054 34.8008C357.929 35.3314 350.636 34.8104 345.754 35.2542L343.863 34.9552C342.18 35.1095 340.207 35.2108 338.514 35.0468L338.62 34.96C336.107 35.1867 333.271 35.0516 332.021 35.1674L332.127 35.0806L329.074 35.1192L329.6 34.9937C325.215 35.2349 320.7 35.2494 316.72 35.1433L317.048 35.5099C308.535 35.0999 305.423 35.8572 297.739 35.3748L297.845 35.288C288.135 36.2527 282.496 34.632 272.487 35.5436C273.736 35.4279 271.951 35.3555 272.053 35.2687C267.441 35.3748 262.521 35.4279 262.449 36.1418C259.091 36.1321 259.714 35.9151 259.275 35.6401C259.294 35.9537 256.376 36.0839 253.756 36.1032L254.962 35.9826L247.447 36.0887L248.923 36.682C244.939 36.5132 247.91 35.9585 244.095 36.1032L244.143 36.5952C238.629 36.4987 235.397 35.7559 230.062 35.3941C207.883 35.1819 184.059 36.436 163.423 35.5726L162.511 35.2012C162.115 34.6609 156.819 35.9971 156.033 35.5002L153.631 35.7462C152.955 35.6498 151.532 35.5485 152.729 35.4279C150.51 35.4086 150.457 35.4954 148.855 35.6594L146.472 35.3266C137.717 35.0661 130.269 35.7125 121.056 35.5822C109.986 34.8973 89.1519 35.5292 77.1457 35.891C60.2723 36.6965 40.6446 34.55 23.3709 35.4713C22.8065 35.3941 21.3546 35.5678 21.3642 35.6305L5.62445 35.5533C5.62445 35.5533 5.23373 35.5533 4.58253 35.5533C4.57288 34.4053 4.56324 32.8761 4.55359 31.1396C4.52465 28.4769 4.49088 25.4958 4.45711 22.4762C4.35582 16.4224 4.19181 10.2143 3.90239 6.03215C3.32836 -2.33217 2.27197 -2.59265 0.323189 22.809L0.20742 22.4183C0.101298 25.6261 0.0241186 28.3949 0.00482372 30.9129C0.00482372 31.54 0 32.1574 0 32.7555C0.00482372 33.3681 0.00964743 33.9663 0.0144711 34.5548C0.033766 36.4602 0.067532 38.2787 0.120593 40.0104C1.39888 39.9718 2.65304 39.9284 3.86862 39.8705C4.46676 39.8416 5.0649 39.8078 5.66787 39.7789C6.04894 39.7451 6.43484 39.7065 6.82073 39.6727C7.76618 40.3963 13.9309 39.7499 15.9569 39.9815L15.7639 40.0393C21.0459 39.4798 26.6366 40.5024 31.7256 40.0056C31.5278 40.0635 31.4169 40.2612 30.2495 40.2757C33.959 40.1841 39.0287 40.0249 39.3036 40.4445C48.16 40.3336 60.5183 40.5314 66.191 39.856L65.8003 39.9718C69.0322 39.5184 69.9873 39.9043 73.6003 39.6727C73.798 39.7258 74.0537 39.7547 74.0103 39.7789C77.5316 39.3303 84.2896 39.7065 87.1356 39.5184L87.3189 39.7982L94.3326 39.7306L91.7133 39.6727C92.6202 38.901 97.0194 40.1551 102.104 39.6583C106.865 39.7547 111.761 38.0568 116.705 38.4379C119.064 38.0761 114.631 39.0215 118.152 38.7466C118.268 39.147 116.507 38.9974 117.414 39.3206C120.873 39.1325 123.092 39.7306 127.356 39.4605L127.529 39.774C133.096 39.2048 138.035 40.1841 141.74 39.639C147.48 39.3833 145.589 40.5651 151.571 39.9573L153.896 40.3818C156.452 40.4494 155.729 39.8657 158.565 40.0683C158.392 40.3336 162.149 40.2805 160.49 40.5314C166.91 40.9462 173.524 39.938 181.98 40.6423C183.817 40.1262 188.072 40.4301 189.442 40.0442C189.669 40.2709 197.975 40.0828 193.195 40.57C192.785 40.6086 192.056 40.6037 192.109 40.5169L191.535 40.8256C196.359 41.4045 200.3 40.5073 205.071 40.5941C203.657 40.4928 201.771 40.5169 203.03 40.3095L207.463 40.3529L206.542 40.6134L213.146 40.7629L212.239 40.4349C215.471 40.5989 216.609 41.144 220.256 40.6906C221.905 40.4397 217.193 40.2612 220.608 40.1599C224.93 40.377 231.403 40.7098 236.922 40.8015C236.406 40.4397 237.891 40.4542 239.415 40.3818L239.594 40.6954C245.45 40.2612 241.741 41.3852 247.548 41.0379L247.037 41.2549L248.571 40.5989C253.814 39.9766 251.398 41.2501 257.225 40.4011C254.924 40.4542 256.139 39.7113 258.976 39.8464L258.257 40.1503C259.825 40.0876 260.35 39.9622 261.392 40.0249C260.457 40.1889 260.9 40.4638 263.206 40.4108L261.658 40.787L266.018 40.2323C269.385 40.5555 274.72 40.1503 276.105 40.5748C276.105 40.5748 283.345 40.7822 285.004 40.3191C283.548 40.6085 287.542 40.7195 286.403 41.062C288.28 40.734 293.817 40.4638 296.036 40.816L295.617 40.8546C303.822 41.2115 309.644 40.3674 317.005 40.8015C316.667 40.4397 320.56 40.6375 319.595 40.1696C327.212 39.7113 333.483 41.115 336.232 39.6776C339.696 39.6004 340.337 40.0152 342.127 40.0876L341.302 40.1648C347.795 40.049 349.676 40.0345 354.5 40.0683C356.907 39.9284 357.283 39.2627 361.6 39.4219C360.206 39.6872 361.967 39.639 363.583 39.639C362.551 39.6824 362.232 39.7789 364.35 39.9573C364.649 39.8753 365.107 39.8271 365.541 39.7837C365.561 39.803 365.643 39.8223 365.599 39.8512C368.291 39.7596 367.823 39.6776 366.573 39.639C366.636 39.6004 366.53 39.5473 366.144 39.475C368.937 39.8175 373.934 39.4509 374.272 39.9091C382.371 39.803 388.16 39.3351 394.894 39.1566C395.651 39.393 394.073 39.6004 392.12 39.6872L396.9 39.6004C396.862 39.9381 394.156 39.7933 392.679 39.8609C398.371 40.406 404.416 39.3158 411.087 39.8175L412.471 39.5522L412.867 39.5956C412.847 39.4557 414.343 39.2627 415.332 39.2193C416.277 39.5136 415.264 39.8946 418.568 39.8802C421.183 40.1648 425.992 39.7403 429.412 39.5811C427.569 39.5329 428.163 39.3689 428.959 39.2676C430.613 39.2579 431.563 39.5522 432.837 39.4267L432.996 39.8223C432.345 39.4509 437.313 39.4219 437.921 39.2579C438.862 39.5522 435.36 39.5087 434.945 39.7306C441.573 39.692 438.259 39.7113 444.882 39.6776C448.417 39.3785 444.24 39.3013 445.928 38.954C446.966 38.9154 447.998 38.8768 449.04 38.8431C450.323 38.7997 451.582 38.7611 452.884 38.7514C452.879 38.0279 452.879 37.3043 452.894 36.5615C452.904 36.19 452.913 35.8138 452.923 35.4327C452.932 35.2398 452.937 35.0468 452.947 34.8539C452.957 34.6754 452.966 34.4921 452.976 34.3088C452.918 34.4776 452.86 34.7429 452.802 34.96L452.629 35.6015C452.6 34.8153 452.571 34.0676 452.542 33.3489C452.522 32.6832 452.503 32.0513 452.484 31.4435C452.455 30.2279 452.445 29.1185 452.455 28.0669C452.474 25.9637 452.576 24.097 452.754 22.1241C449.889 -21.5547 448.842 12.9204 448.842 12.9204C448.62 17.8213 448.543 22.0421 448.557 26.0554C448.562 28.0621 448.591 30.0157 448.635 31.9741C448.644 32.4661 448.659 32.9533 448.668 33.4453L448.688 34.1834L448.692 34.3667C448.692 34.4149 448.697 34.521 448.697 34.4969L448.707 34.5065C448.736 34.5307 448.765 34.5789 448.799 34.6609C448.784 34.685 448.76 34.7091 448.712 34.7333L448.673 34.7526L448.654 34.7622L448.644 34.767C448.639 34.767 448.649 34.7719 448.582 34.7719C448.186 34.7863 447.786 34.796 447.38 34.8104C445.764 34.8587 444.091 34.9117 442.325 34.9696C438.813 35.0516 434.95 35.1433 430.546 35.2012Z" fill="#202020"/>
</svg>
