<svg xmlns="http://www.w3.org/2000/svg" xmlns:xlink="http://www.w3.org/1999/xlink" viewBox="0 0 1084.16 383.53"><defs><style>.cls-1{opacity:0.05;}.cls-2{fill:#010101;}.cls-3{fill:#93dad5;}.cls-4{fill:none;}</style></defs><title>Basket</title><g id="Placement"><image class="cls-1" width="1520" height="3404" transform="translate(167.39 -296.99)" xlink:href="../../../../03_Working/07_Figma/_render/HERO%20-%20full%20color.png"/></g><g id="Layer_3" data-name="Layer 3"><path class="cls-2" d="M670.86,243.72l-4.6-.31c1.34,1.1,2.64,2.18,3.89,3.26l1.48.11C671.31,245.7,671.05,244.68,670.86,243.72ZM648.3,257.26l-24.42-.95a6.38,6.38,0,1,1,.68-12.75l1.8.12,20.51,1.41a10.39,10.39,0,0,1,1.59-2.89l-21.9-1.51-1.79-.12a9.38,9.38,0,1,0-1,18.74l26.44,1c-.59-.9-1.15-1.81-1.7-2.71Zm159.31,6.17-60.27-2.34.89,1.49c.32.54.61,1.07.86,1.59l58.4,2.26h.06a1.5,1.5,0,0,0,.06-3ZM810,252a1.48,1.48,0,0,0-1.75-.44c-2.11.36-17.78-.15-69.54-3.4.73,1,1.49,2,2.27,3.15,67.06,4.19,68.06,3.39,68.79,2.8A1.5,1.5,0,0,0,810,252Z"/><path class="cls-2" d="M777.28,253.42A1.5,1.5,0,0,1,776.1,251c5.65-7.2,7.64-12.77,5.76-16.11-2.32-4.12-10.59-4.75-15.26-4.19l-.36.05c-18.93,2.32-54.75,2.33-82-23.65-6.49-6.17-12.12-13.07-18.07-20.36-19.94-24.42-40.56-49.67-95.92-49.91h-.49c-41.32,0-90.49,23-133.9,43.26-35.71,16.69-66.56,31.1-88.21,31.19h-.27c-30.52,0-68.47-22.8-99-41.14l-1.06-.64c-6.09-3.66-11.76-7.1-17.08-10.33-44.35-26.93-64.59-39.22-109.17-43.46-25.65-2.44-52.24,7.23-70,15.77A219.29,219.29,0,0,0,18.16,150.8a1.49,1.49,0,0,1-2.1-.3,1.51,1.51,0,0,1,.3-2.1A222.94,222.94,0,0,1,49.7,128.75c18.14-8.7,45.28-18.56,71.62-16,45.26,4.3,65.69,16.71,110.44,43.89,5.32,3.23,11,6.66,17.07,10.32l1,.64c30.2,18.14,67.76,40.71,97.45,40.71h.25c21-.09,53-15.06,87-30.91,43.69-20.41,93.19-43.54,135.17-43.54h.5c56.78.25,78.8,27.22,98.23,51,5.89,7.22,11.46,14,17.82,20.09,26.41,25.13,61.21,25.1,79.62,22.84l.36,0c.57-.07,14.11-1.62,18.23,5.7,2.56,4.54.54,11.08-6,19.43A1.51,1.51,0,0,1,777.28,253.42Z"/><path class="cls-2" d="M346.86,293.28a181.09,181.09,0,0,1-32-2.88c-35.38-6.32-64-21.63-86.93-33.94l-8.47-4.53c-41.81-22.37-69.43-37.15-115.48-38.32-18.67-.47-44.6,2.72-62.1,20.59C31.51,244.82,29,255.67,29,255.78a1.5,1.5,0,0,1-2.93-.65c.11-.48,2.72-11.8,13.7-23,18.26-18.64,45.05-22,64.32-21.49,46.77,1.18,74.64,16.1,116.83,38.67l8.47,4.53c22.78,12.21,51.13,27.4,86,33.64,41.28,7.37,81.43.35,122.73-21.47,16.92-8.94,31.79-17.68,44.9-25.39,31-18.23,53.42-31.41,78.35-33.85,26.29-2.58,53.06,7.16,89.52,32.58a1.5,1.5,0,1,1-1.72,2.46c-74.24-51.76-104.44-34-164.63,1.4-13.14,7.72-28,16.48-45,25.45C408.33,285.12,377.76,293.28,346.86,293.28Z"/><path class="cls-2" d="M688.54,293.49a21.2,21.2,0,0,1-8.61-1.87c-10.55-4.73-22.67-17.15-32.42-33.23h0C643,251,645.15,242.66,649.82,239c5.78-4.6,12.74-1.45,17.32,3a294.67,294.67,0,0,1,23.69,26.22c2.14,2.58,4.35,5.26,6.73,8.07,5.45,6.43,3.11,11,1.85,12.71C697.19,291.91,693.09,293.49,688.54,293.49Zm-32.33-53.78a7.11,7.11,0,0,0-4.52,1.59c-3.66,2.9-5.26,9.51-1.61,15.54h0c9.44,15.57,21.06,27.55,31.08,32,6.72,3,13.46,1.46,15.85-1.72,1.78-2.36,1.16-5.55-1.74-9-2.4-2.83-4.61-5.51-6.75-8.1a294.52,294.52,0,0,0-23.47-26C662.06,241.2,659,239.71,656.21,239.71Z"/><path class="cls-2" d="M671.9,249.9a1.49,1.49,0,0,1-1.42-1c-4.38-12.55.25-17.22,3.39-18.88,8.23-4.35,23.52,2.21,32.09,13.77a1.5,1.5,0,0,1-2.41,1.78c-8.35-11.27-22.06-16.19-28.27-12.9-4,2.1-4.66,7.51-2,15.24a1.5,1.5,0,0,1-.92,1.91A1.41,1.41,0,0,1,671.9,249.9Z"/><path class="cls-2" d="M711.33,287.47c-5.31,0-11.21-2.61-15.6-8.76a1.5,1.5,0,1,1,2.44-1.74c5.48,7.67,13.55,8.92,18.69,6.18a7.94,7.94,0,0,0,3.83-10.37,13.55,13.55,0,0,0-.64-1.42,1.5,1.5,0,0,1,2.67-1.38,16.76,16.76,0,0,1,.78,1.75c2.14,5.72.08,11.24-5.23,14.07A14.79,14.79,0,0,1,711.33,287.47Z"/><path class="cls-2" d="M739.73,282.59a20.5,20.5,0,0,1-12.71-4.8c-2.16-1.73-4-3.36-5.75-5a1.5,1.5,0,0,1,2.08-2.16c1.64,1.58,3.45,3.16,5.54,4.83,6.86,5.46,14.26,5,18,1.72,3.51-3.06,3.63-8.23.31-13.83-9-15.14-17-23.49-17.08-23.57a.93.93,0,0,1-.13-.15c-6.39-8.56-17.34-15.21-23.87-11-3.85,2.47-3.87,8.35-.06,15.36a1.5,1.5,0,1,1-2.64,1.44c-5.54-10.19-3.07-16.67,1.08-19.33,8.07-5.16,20.48,1.88,27.84,11.69.86.91,8.64,9.19,17.44,24.06,6.1,10.3.84,16.09-.92,17.62A13.9,13.9,0,0,1,739.73,282.59Z"/><path class="cls-2" d="M874.4,281.76c-48.2,0-68.35-3.29-68.35-23.7,0-15.15,36.78-22.23,68.28-23.69,35.49-1.65,61,2.37,70.09,11A10.4,10.4,0,0,1,948,253C948,267,910.17,281.76,874.4,281.76ZM889.16,237c-4.68,0-9.59.12-14.7.35-38.51,1.79-65.41,10.3-65.41,20.7,0,16.25,14,20.7,65.35,20.7,17,0,34.94-3.25,49.35-8.92C936.87,264.68,945,258.23,945,253a7.52,7.52,0,0,0-2.66-5.46C935.26,240.78,915.83,237,889.16,237Z"/><path class="cls-2" d="M854.53,273.25c-25.89,0-37.15-2.05-38.9-12a5.19,5.19,0,0,1,1.17-4.18c1.79-2.33,11-10.24,54.18-14,18.13-1.56,33.68-1.69,45-.38,12,1.4,18.48,4.36,19.26,8.8a5.91,5.91,0,0,1-1.6,4.77c-6.29,7.63-31,16.15-57.76,16.67C867.86,273.13,860.77,273.25,854.53,273.25Zm43.31-28.41c-7.65,0-16.53.39-26.6,1.26-27.47,2.36-47.91,7.39-52.07,12.8a2.33,2.33,0,0,0-.59,1.83h0c1.67,9.47,16.18,10,57.22,9.24,25.56-.49,49.76-8.61,55.5-15.58a3.31,3.31,0,0,0,1-2.34C931.55,248,919.7,244.84,897.84,244.84Z"/><path class="cls-2" d="M722.7,274.09a1.49,1.49,0,0,1-1.26-.69l-19.45-30a1.5,1.5,0,1,1,2.52-1.64l19.45,30a1.51,1.51,0,0,1-.44,2.08A1.56,1.56,0,0,1,722.7,274.09Z"/><path class="cls-2" d="M747.31,158.38h-.26c-4.34-.27-8.55-6.34-9.59-13.82-1.35-9.71,3.38-13.62,4.86-14.58s3.11-1.26,4.13-.64h0a7.54,7.54,0,0,1,3,4.19c.68,1.75,1.13,2.91,3.74,3.46a4.42,4.42,0,0,1,3.33,2.18c1,2-.14,4.5-1.59,7.65a42,42,0,0,0-2.66,6.78C751.17,157.81,748.61,158.38,747.31,158.38ZM745,132a4.56,4.56,0,0,0-2.28,1.52c-1.23,1.35-3.17,4.53-2.33,10.62,1,7,4.64,11.1,6.8,11.23,1.22.09,1.85-1.35,2.17-2.56a45.08,45.08,0,0,1,2.83-7.26c.94-2,2-4.32,1.64-5-.11-.23-.59-.45-1.27-.6-4.2-.88-5.19-3.44-5.91-5.31A5.1,5.1,0,0,0,745,132Zm-.17-.11h0Z"/><path class="cls-2" d="M880.58,190.74s-3.36,7,2.14,11.91S896.45,206,893.09,199,883.94,188.91,880.58,190.74Z"/><path class="cls-2" d="M889.59,207a12.28,12.28,0,0,1-7.87-3.23c-5-4.46-3.82-10.89-2.49-13.67a1.41,1.41,0,0,1,.63-.67,6.67,6.67,0,0,1,5.35-.3c3.58,1.16,7,4.6,9.24,9.21s.06,6.73-.94,7.48A6.44,6.44,0,0,1,889.59,207Zm-7.85-15.13c-.57,1.52-1.89,6.23,2,9.66,2.84,2.52,6.49,3,8,1.89,1.19-.89.54-2.75,0-3.79-2.18-4.56-5.28-6.94-7.45-7.64A4.21,4.21,0,0,0,881.74,191.87Z"/><path class="cls-2" d="M953.72,213a4.65,4.65,0,0,1-3.3-1.25c-2.65-2.51-2.11-7.84,1.48-14.61,4.22-8,9.32-11.33,15.15-10.06h0l6.21-.3c2.87-.15,3.8,1,4.08,1.95,1.21,4.2-9.57,10.35-9.68,10.41-2.59,1.47-3.28,3.28-4.07,5.39-.88,2.31-1.87,4.92-5.36,7A8.94,8.94,0,0,1,953.72,213Zm10.93-23.21c-2.32,0-6.11,1.24-10.1,8.76-3.16,6-3.31,9.84-2.06,11,.78.73,2.4.51,4.24-.6,2.59-1.55,3.29-3.38,4.09-5.51.88-2.31,1.87-4.93,5.41-6.93,4.17-2.36,7.45-5.4,8.12-6.74a5.87,5.87,0,0,0-.9,0l-6.41.31a1.53,1.53,0,0,1-.37,0l-.26-.06A7.69,7.69,0,0,0,964.65,189.8Z"/><path class="cls-2" d="M893.88,343.7a1.14,1.14,0,0,1-.37-.05c-.67-.16-16.68-4.36-42.59-26.31S817,275.77,816.65,275a1.5,1.5,0,1,1,2.78-1.11c.08.19,8.11,19.77,33.43,41.21s41.22,25.65,41.38,25.69a1.52,1.52,0,0,1,1.09,1.83A1.49,1.49,0,0,1,893.88,343.7Z"/><path class="cls-2" d="M908.23,330.72c-3.48,0-11.38-3.82-23.56-11.42-21-13.09-41.65-37-41.86-37.24a1.5,1.5,0,0,1,2.28-1.95c.2.24,20.55,23.8,41.17,36.65,17.13,10.68,21.37,11,22,11a1.49,1.49,0,0,1,1.69.39,1.51,1.51,0,0,1-.12,2.12A2.32,2.32,0,0,1,908.23,330.72Zm-.43-2.7h0Zm0,0Zm0,0Zm0,0Zm0,0Zm0,0Zm0,0Zm0,0Zm.48-.26Z"/><path class="cls-2" d="M919.22,315.41a1.52,1.52,0,0,1-.59-.12c-.22-.1-5.59-2.4-21-10.27-15.8-8.06-24.18-23.4-24.53-24a1.5,1.5,0,0,1,2.65-1.42c.08.15,8.3,15.18,23.25,22.8,15.31,7.8,20.78,10.15,20.84,10.18a1.5,1.5,0,0,1-.59,2.88Z"/><path class="cls-2" d="M928.45,297.49a1.47,1.47,0,0,1-.54-.1c-.13-.05-3.23-1.27-12.1-6.78-9.09-5.64-12.88-12.44-13-12.73a1.5,1.5,0,0,1,2.64-1.44,36.19,36.19,0,0,0,12,11.62c8.54,5.3,11.58,6.52,11.61,6.53a1.5,1.5,0,0,1-.55,2.9Z"/><path class="cls-2" d="M820.43,298.62c-.8,0-1.28,0-1.4,0a1.5,1.5,0,1,1,.21-3A50.64,50.64,0,0,0,832.53,294c7.48-1.73,19.08-5.75,31.91-15a1.5,1.5,0,0,1,1.76,2.43C844.14,297.4,825.58,298.62,820.43,298.62Z"/><path class="cls-2" d="M872.34,351.28c-11.05,0-22.92-8.92-41-30.77-17.46-21.13-22.32-50-22.52-51.25a1.5,1.5,0,0,1,3-.48c0,.26,4,24,17.3,43.68,2.19.38,27.85,4.34,56.89-11.62,30.56-16.79,54.27-40.19,54.51-40.42a1.48,1.48,0,0,1,1.67-.3,1.51,1.51,0,0,1,.88,1.45c-.57,10.59-9.24,29.25-12.93,36.78-7.17,14.6-15.36,27.88-20.86,33.82C898.37,344,884.22,351.28,872.34,351.28ZM831.5,315.82c.7.94,1.43,1.87,2.18,2.78,17.41,21.08,28.61,29.68,38.66,29.68,11.07,0,24.38-6.95,34.73-18.14,10.62-11.48,28.94-47.21,32.43-64.64-7.46,6.9-27.6,24.53-52.06,38C862,317.46,839.54,316.7,831.5,315.82Z"/><path class="cls-2" d="M852.72,337c-5,0-7.27-1.35-7.47-1.47A1.5,1.5,0,0,1,846.8,333c.17.09,9.76,5.2,33.65-8.33,25-14.14,46.91-29.73,47.13-29.89a1.5,1.5,0,0,1,1.74,2.44c-.22.16-22.28,15.84-47.39,30.06C868,335.16,858.54,337,852.72,337Z"/><polygon class="cls-3" points="800.78 158.02 782.67 167.84 787.04 150.19 800.55 141.19 800.78 158.02"/><polygon class="cls-3" points="829.35 208.55 783.51 171.1 801.82 161.2 829.35 208.55"/><path class="cls-3" d="M828.41,151.79,804.05,157l-.23-16.88a1.42,1.42,0,0,0-.06-.42l14-3.92a1.64,1.64,0,0,0,.22.49Z"/><polygon class="cls-3" points="847.65 147.14 831.86 151.02 821.39 135.47 834.79 136.41 847.65 147.14"/><polygon class="cls-3" points="831.86 206.35 804.99 160.13 829.58 154.91 831.86 206.35"/><polygon class="cls-3" points="834.07 210.13 833.73 211.5 832.96 211.5 832.05 210.76 831.86 206.35 834.07 210.13"/><polygon class="cls-3" points="848.77 150.25 835.12 205.84 832.82 154.17 848.77 150.25"/><polygon class="cls-2" points="834.07 210.13 833.73 211.5 832.96 211.5 832.05 210.76 831.86 206.35 834.07 210.13"/><polygon class="cls-2" points="834.07 210.13 833.73 211.5 832.96 211.5 832.05 210.76 831.86 206.35 834.07 210.13"/><path class="cls-2" d="M848.77,150.25l-15.95,3.92,2.3,51.67-1,4.29-2.21-3.78-2.28-51.44L805,160.13l26.87,46.22.19,4.41-2.69-2.2h0L801.82,161.2l-18.31,9.91L782.13,170l.54-2.16L800.78,158l-.23-16.83,1.63-1.08,1.58-.44a1.42,1.42,0,0,1,.06.42l.23,16.88,24.36-5.18-10.47-15.55a1.64,1.64,0,0,1-.22-.49l1.58-.43,2.09.14h0L831.86,151l15.79-3.88,1.55,1.3Z"/><polygon class="cls-4" points="800.78 158.02 782.67 167.84 787.04 150.19 800.55 141.19 800.78 158.02"/><polygon class="cls-4" points="829.35 208.55 783.51 171.1 801.82 161.2 829.35 208.55"/><path class="cls-4" d="M828.41,151.79,804.05,157l-.23-16.88a1.42,1.42,0,0,0-.06-.42l14-3.92a1.64,1.64,0,0,0,.22.49Z"/><polygon class="cls-4" points="847.65 147.14 831.86 151.02 821.39 135.47 834.79 136.41 847.65 147.14"/><polygon class="cls-4" points="831.86 206.35 804.99 160.13 829.58 154.91 831.86 206.35"/><path class="cls-2" d="M915,176.54a1.51,1.51,0,0,1-1.49-1.26l-18.13-112a1.5,1.5,0,0,1,2.73-1.06l19.22,29.44,57.2,24.79L1009,108a1.49,1.49,0,0,1,1.21,2.68L915.8,176.27A1.46,1.46,0,0,1,915,176.54ZM899.42,69.82l16.63,102.63,85.79-59.61-27.13,6.67a1.51,1.51,0,0,1-1-.08L915.67,94.26a1.53,1.53,0,0,1-.66-.55Z"/><path class="cls-2" d="M975.29,91.28a1.52,1.52,0,0,1-.63-.14l-37.92-17.5a1.46,1.46,0,0,1-.73-.74l-11.35-25a1.51,1.51,0,0,1,.07-1.37,1.47,1.47,0,0,1,1.16-.74L949,43.65a5.09,5.09,0,0,1,2.44.36L986,58.19a5.14,5.14,0,0,1,2.16,1.67l14.3,19a1.47,1.47,0,0,1,.25,1.31,1.51,1.51,0,0,1-.9,1L975.83,91.18A1.66,1.66,0,0,1,975.29,91.28ZM938.51,71.15l36.83,17,23.48-9.1L985.71,61.66a2.2,2.2,0,0,0-.9-.69L950.27,46.78a2.21,2.21,0,0,0-1-.15l-21,2Z"/><path class="cls-2" d="M896.81,64.57a1.48,1.48,0,0,1-1.32-.79,1.5,1.5,0,0,1,.61-2L925.32,46a1.5,1.5,0,1,1,1.42,2.64L897.52,64.39A1.42,1.42,0,0,1,896.81,64.57Z"/><path class="cls-2" d="M1009.35,111a1.49,1.49,0,0,1-1.44-1.1l-8.14-29.72a1.5,1.5,0,1,1,2.89-.79l8.14,29.72a1.5,1.5,0,0,1-1,1.84A1.83,1.83,0,0,1,1009.35,111Z"/><path class="cls-2" d="M914.94,176.54a1.37,1.37,0,0,1-.59-.13,1.49,1.49,0,0,1-.9-1.4l1.32-82.15a1.55,1.55,0,0,1,.45-1l21.1-20.61a1.5,1.5,0,0,1,2.1,2.15L917.76,93.53l-1.26,77.93,56.37-54.07.92-27.66a1.52,1.52,0,0,1,1.55-1.45,1.5,1.5,0,0,1,1.45,1.55l-.94,28.27a1.5,1.5,0,0,1-.46,1l-59.41,57A1.51,1.51,0,0,1,914.94,176.54Z"/><path class="cls-2" d="M892.37,44.1a1.52,1.52,0,0,1-1.26-.69l-8.42-13a1.5,1.5,0,0,1,2.52-1.63l8.42,13a1.5,1.5,0,0,1-.44,2.07A1.46,1.46,0,0,1,892.37,44.1Z"/><path class="cls-2" d="M884,58.92a1.46,1.46,0,0,1-.8-.23l-16.06-10.1a1.5,1.5,0,0,1,1.6-2.54l16.06,10.1a1.5,1.5,0,0,1-.8,2.77Z"/><path class="cls-2" d="M867.89,81.23a1.5,1.5,0,0,1-.58-2.88l13.17-5.46a1.5,1.5,0,0,1,1.15,2.77l-13.17,5.46A1.6,1.6,0,0,1,867.89,81.23Z"/><path class="cls-2" d="M1027.87,99.07a1.5,1.5,0,0,1-.71-2.83l12.73-6.79a1.5,1.5,0,0,1,1.42,2.65l-12.74,6.79A1.52,1.52,0,0,1,1027.87,99.07Z"/><path class="cls-2" d="M1043.31,125a1.52,1.52,0,0,1-.63-.14l-18.53-8.6a1.5,1.5,0,1,1,1.26-2.72l18.53,8.6a1.5,1.5,0,0,1-.63,2.86Z"/><path class="cls-2" d="M1019.84,142.69a1.49,1.49,0,0,1-1.14-.52L1008.22,130a1.5,1.5,0,1,1,2.27-2l10.48,12.2a1.5,1.5,0,0,1-1.13,2.48Z"/><polygon class="cls-4" points="834.07 210.13 833.73 211.5 832.96 211.5 832.05 210.76 831.86 206.35 834.07 210.13"/><polygon class="cls-4" points="848.77 150.25 835.12 205.84 832.82 154.17 848.77 150.25"/></g></svg>