<svg id="Layer_1" data-name="Layer 1" xmlns="http://www.w3.org/2000/svg" viewBox="0 0 800 300"><defs><style>.cls-1{fill:#fff;}</style></defs><title>white-logo</title><path class="cls-1" d="M246.34,100.65c-14.64,0-27.58,8.26-36.78,19.33l-.37-13.14c-.19-4.69-2.44-6.94-5.82-6.94-3.56,0-6,2.82-6,6.76v128a6.06,6.06,0,0,0,6.19,6.38c3.75,0,6-2.81,6-6.57V178.52c9.2,10.88,22.14,18.39,36.78,18.39A47.53,47.53,0,0,0,294,149.06C294,122.61,273,100.65,246.34,100.65Zm-.19,84.62c-19.32,0-35.46-16.32-35.46-36.21,0-20.08,16.14-36.77,35.46-36.77,19.7,0,35.46,16.69,35.46,36.77C281.61,169,265.85,185.27,246.15,185.27Z"/><path class="cls-1" d="M149.33,101.59H62.65a10.1,10.1,0,0,0-10.32,10v32.08c0,29.08,24,53.29,53.66,53.29a53.5,53.5,0,0,0,53.29-53.29V111.54A9.89,9.89,0,0,0,149.33,101.59Zm-12.94,39.78-25.52,24a6.68,6.68,0,0,1-4.88,2.06,7.21,7.21,0,0,1-5.25-2.06l-25.14-24a7.59,7.59,0,0,1,0-10.51c2.81-2.63,7.5-3,10.32,0L106,150.19l20.45-19.33c2.63-3,7.32-2.63,9.95,0A8,8,0,0,1,136.39,141.37Z"/><path class="cls-1" d="M547.64,144.31l34.93-31.46c3.19-2.82,3.57-6.94,1.13-9.57-2.63-2.81-6.57-2.06-9.38.56l-47.47,44.54V65.19c0-4.31-1.88-7.13-5.82-7.13-4.32,0-6.38,2.82-6.38,7.13V190c0,4.13,2.44,6.95,6.38,6.95,3.56,0,5.82-2.82,5.82-6.95V163L539,152.09l38.31,42.57c2.44,2.62,6.57,3.56,9.19,1.12,3-2.81,2.07-6.57-.19-9.19Z"/><path class="cls-1" d="M352.91,100.65a48.13,48.13,0,0,0-48.22,48.41c0,26.46,21,47.85,48.22,47.85,25.52,0,47.66-21.39,47.66-47.85S378.24,100.65,352.91,100.65Zm-.37,84.62c-19.33,0-35.46-16.32-35.46-36.21,0-20.08,16.13-36.77,35.46-36.77,19.7,0,35.46,16.69,35.46,36.77C388,169,372.24,185.27,352.54,185.27Z"/><path class="cls-1" d="M739.81,178.71a8.25,8.25,0,0,0-4.88,2.06c-2.63,2.25-5.82,4.5-10.32,4.5-7.7,0-12-4.69-12-15.38V112.1l23.83.37c3.38,0,5.63-2.06,5.63-5.25,0-3.38-2.25-5.44-5.63-5.44L712.6,102V82.64c0-3.75-2.63-6.38-5.82-6.38a6.18,6.18,0,0,0-6.19,6.38V102l-10.13-.19a5.12,5.12,0,0,0-5.44,5.44,5.17,5.17,0,0,0,5.44,5.25l10.13-.37v58.16c0,18.2,11.07,26.65,23.83,26.65a24.21,24.21,0,0,0,18-7.32c1.32-1.5,2.63-3.19,2.63-5.44A5.07,5.07,0,0,0,739.81,178.71Z"/><path class="cls-1" d="M638.3,100.65c-26.65,0-46.53,22-46.53,48.41s20.26,47.85,46.72,47.85c13.13,0,25.89-4.88,34.33-13.14,1.88-1.87,3.38-3.94,3.38-6a5.12,5.12,0,0,0-5.44-5.44,8.1,8.1,0,0,0-5.26,2.06c-7.88,6.94-15.94,10.88-27,10.88-17.23,0-32.6-13.11-34.2-32.64h67c6.38,0,9.95-3.38,9.95-8.82C681.27,122.79,662.88,100.65,638.3,100.65Zm-33.68,41.66c2.76-19.7,17.31-30,33.68-30,17.45,0,29.64,14.63,30.39,30Z"/><path class="cls-1" d="M492.51,167.26a6.58,6.58,0,0,0-4.69,2.82c-5.25,6.94-16.51,15.19-29.08,15.19-18.77,0-34.9-14.82-34.9-36.21,0-22.89,16.13-36.59,34.9-36.59,13.69,0,21.2,6.57,27.58,14.26a6.65,6.65,0,0,0,4.88,2.63c2.81,0,5.62-2.06,5.62-4.88,0-2.06-1.31-4.13-2.43-5.81-7.7-11.07-20.64-17.45-35.65-17.45a47.73,47.73,0,0,0-47.47,47.84c0,26.08,21.39,47.85,47.47,47.85,16.13,0,30-9.38,37.33-19.14a8.35,8.35,0,0,0,2.07-4.88A5.42,5.42,0,0,0,492.51,167.26Z"/></svg>
