<svg width="173" height="122" fill="none" xmlns="http://www.w3.org/2000/svg"><path d="M81.19 0H56.2v121.38h24.99V0z" fill="#EF3A58"/><path d="M118.68 0H93.69v121.38h24.99V0z" fill="#F9BFD1"/><path d="M131.18 7.65h-12.5v113.73h12.5V7.65z" fill="#82ECB7"/><path d="M56.2 7.65H36.87v113.73H56.2V7.65z" fill="#FBB54A"/><path d="M150.65 37.26h-19.33v84.12h19.33V37.26zM36.87 46.5H21v74.88h15.87V46.5z" fill="#18AFA1"/><path d="M93.69 23.82h-12.5v97.56h12.5V23.82z" fill="#95D5D2"/><path d="M60.11 92.152l-1.556 1.555 16.468 16.469 1.556-1.556-16.469-16.468z" fill="#221F1F"/><path d="M75.06 92.114l-16.468 16.468 1.556 1.556 16.468-16.469-1.555-1.555zM115.74 22.72H96.63v2.2h19.11v-2.2zM115.74 27.47H96.63v2.2h19.11v-2.2zM138.52 110.36h-2.2c0-3.69 2.09-5.56 3.94-7.21 1.72-1.54 3.2-2.87 3.2-5.57s-1.48-4.03-3.2-5.57c-1.85-1.65-3.94-3.52-3.94-7.21 0-3.68 2.09-5.55 3.94-7.2 1.72-1.54 3.2-2.86 3.2-5.56 0-2.7-1.48-4.03-3.2-5.57-1.85-1.65-3.94-3.52-3.94-7.21 0-3.68 2.09-5.55 3.94-7.2 1.72-1.54 3.2-2.86 3.2-5.56h2.2c0 3.68-2.09 5.55-3.94 7.2-1.72 1.54-3.2 2.86-3.2 5.56 0 2.7 1.48 4.03 3.2 5.57 1.85 1.65 3.94 3.52 3.94 7.21 0 3.68-2.09 5.55-3.94 7.2-1.72 1.54-3.2 2.86-3.2 5.56 0 2.7 1.48 4.03 3.2 5.57 1.85 1.65 3.94 3.52 3.94 7.21s-2.09 5.56-3.94 7.21c-1.72 1.54-3.2 2.87-3.2 5.57z" fill="#221F1F"/><path stroke="#000" d="M0 121.5h173"/></svg>