<svg width="1335" height="1475" viewBox="0 0 1335 1475" fill="none" xmlns="http://www.w3.org/2000/svg">
  <path d="M538.945 777.136C538.945 777.136 523.607 761.799 518.787 719.73C513.967 678.099 529.742 593.085 581.014 548.826C632.285 504.566 689.692 492.734 737.457 505.88C785.223 519.027 810.201 533.488 893.9 622.884C977.6 712.28 999.072 773.192 1071.82 799.485C1135.8 822.711 1194.52 813.508 1220.37 806.059C1223.44 805.182 1225.63 808.688 1223.88 810.879C1210.29 829.284 1173.04 876.173 1126.59 899.837C1077.51 924.815 1058.67 929.636 1024.93 927.445C991.184 925.254 627.465 930.074 538.945 777.136Z" fill="#FCB643"/>
  <path d="M191 261L351.5 296L332 356.5L304 398L265.5 421.5C249.5 396.667 214.6 342.4 203 324C191.4 305.6 193.333 273.167 191 261Z" fill="white"/>
  <path d="M309.957 386.292C326.557 372.413 337.599 357.691 348.641 306.163" stroke="black" stroke-width="8.76" stroke-linecap="round" stroke-linejoin="round"/>
  <path d="M140.5 27.5L463 109.803L435.061 326.332L106.774 263.469L140.5 27.5Z" fill="white"/>
  <path d="M144.631 27.4728L457.066 105.582C459.809 106.267 461.589 108.915 461.189 111.714L430.815 324.336L268.172 293.603L110.698 263.847C107.804 263.3 105.85 260.577 106.258 257.661L137.829 32.0606C138.283 28.8143 141.451 26.6778 144.631 27.4728Z" stroke="black" stroke-width="8.76" stroke-linecap="round" stroke-linejoin="round"/>
  <path d="M459.893 108.789L272.687 237.431C270.056 239.239 266.446 238.444 264.817 235.7L142.823 30.1294" stroke="black" stroke-width="8.76" stroke-linecap="round" stroke-linejoin="round"/>
  <path d="M352.083 182.755L433.577 298.78" stroke="black" stroke-width="8.76" stroke-linecap="round" stroke-linejoin="round"/>
  <path d="M211.195 155.82L110.292 229.789" stroke="black" stroke-width="8.76" stroke-linecap="round" stroke-linejoin="round"/>
  <path d="M262.365 100.446L342.702 116.513C346.123 117.197 348.054 120.846 346.503 123.972C336.077 144.981 312.944 176.334 284.404 170.325C259.016 164.98 256.159 122.026 256.005 105.572C255.974 102.201 259.059 99.7847 262.365 100.446Z" fill="#EF4056"/>
  <path d="M322.386 130.96L293.38 147.535L274.733 124.744" stroke="white" stroke-width="9.93083" stroke-linecap="round" stroke-linejoin="round"/>
  <path d="M194.06 302.479L250.945 306.16C250.485 293.268 247.118 292.47 241.041 269.265C233.444 240.259 225.847 208.49 205.818 210.562C185.79 212.634 186.699 234.377 186.699 250.952C193.606 285.483 194.06 291.438 194.06 302.479Z" fill="white"/>
  <path d="M249.937 309.846C242.34 280.84 231.534 217.834 204.811 210.569C185.381 205.287 179.334 221.512 186.695 258.318C191.112 280.403 201.417 350.331 241.903 383.456" stroke="black" stroke-width="8.76" stroke-linecap="round" stroke-linejoin="round"/>
  <path d="M475.842 1124.64C475.842 1124.64 443.414 1128.15 399.592 1132.97C355.332 1137.79 312.387 1139.1 268.127 1155.76C223.867 1172.41 201.08 1186.87 194.069 1221.49C187.057 1256.11 178.731 1288.54 222.553 1313.51C266.813 1338.49 354.018 1375.74 383.816 1384.07C413.615 1392.39 439.908 1395.9 456.56 1395.9C473.213 1395.9 520.978 1406.85 552.091 1416.06C583.205 1425.26 613.004 1434.02 632.285 1427.89C651.567 1421.75 665.59 1425.7 641.926 1391.08C618.262 1356.46 769.885 1382.75 795.74 1380.12C822.033 1377.93 1036.76 1337.18 1067.87 1325.35C1098.99 1313.51 1195.83 1259.61 1217.3 1228.5C1238.78 1197.39 1245.79 1170.22 1208.98 1155.76C1172.17 1141.29 1115.64 1124.64 1047.71 1127.27C979.791 1129.9 475.842 1124.64 475.842 1124.64Z" fill="#1CB0A8"/>
  <path d="M1020.11 1209.22C1020.11 1209.22 832.55 1232.88 772.953 1248.66C713.355 1264.43 633.161 1299.93 633.161 1299.93" stroke="black" stroke-width="8.76433" stroke-miterlimit="10" stroke-linecap="round" stroke-linejoin="round"/>
  <path d="M322.904 1228.5C322.904 1228.5 359.714 1235.51 398.277 1246.47C436.402 1257.42 500.82 1285.91 524.922 1294.23C548.586 1302.56 592.846 1321.84 592.846 1321.84" stroke="black" stroke-width="8.76433" stroke-miterlimit="10" stroke-linecap="round" stroke-linejoin="round"/>
  <path d="M619.139 1413.43C621.33 1413.43 583.205 1365.66 573.564 1342.87C563.923 1320.09 554.282 1303.43 554.282 1303.43" stroke="black" stroke-width="8.76433" stroke-miterlimit="10" stroke-linecap="round" stroke-linejoin="round"/>
  <path d="M592.846 1321.84C592.846 1321.84 599.857 1306.5 620.453 1308.69C640.611 1310.88 669.534 1328.85 701.523 1342C733.951 1355.14 808.886 1387.57 823.347 1396.77C837.809 1405.98 853.146 1433.58 819.842 1434.9C786.537 1436.21 680.927 1416.93 652.881 1402.47C637.982 1395.46 592.846 1321.84 592.846 1321.84Z" fill="black"/>
  <path d="M554.282 1303.87C554.282 1303.87 561.294 1274.07 582.766 1275.39C604.239 1276.7 618.7 1280.21 629.217 1298.18C640.173 1316.14 607.745 1327.97 607.745 1327.97L554.282 1303.87Z" fill="black"/>
  <path d="M720.367 1391.95C720.367 1391.95 719.49 1408.61 720.805 1419.56" stroke="white" stroke-width="8.76433" stroke-miterlimit="10" stroke-linecap="round"/>
  <path d="M694.074 1381.44L698.456 1416.49" stroke="white" stroke-width="8.76433" stroke-miterlimit="10" stroke-linecap="round"/>
  <path d="M667.342 1368.73C665.589 1369.17 672.163 1391.95 673.477 1410.36" stroke="white" stroke-width="8.76433" stroke-miterlimit="10" stroke-linecap="round"/>
  <path d="M532.81 1198.7C532.81 1198.7 488.55 1179.42 431.144 1089.58C373.737 999.75 289.6 866.094 256.734 765.743C223.867 664.953 213.788 682.482 228.249 444.53C230.879 403.776 228.249 384.933 254.542 384.933C284.779 384.933 314.14 391.068 314.14 391.068C314.14 391.068 316.331 415.17 325.972 455.047C335.612 494.925 348.321 560.219 357.961 600.097C367.602 639.975 375.928 670.65 410.986 703.954C446.043 737.259 489.865 739.888 531.495 753.911C573.126 767.934 618.7 782.395 643.679 785.024C668.657 787.215 779.964 765.743 810.639 768.372C841.314 771.001 901.788 775.822 959.195 809.564C992.499 829.284 1027.12 912.107 1041.58 946.726C1056.04 981.345 1067.87 1054.09 1077.51 1075.56C1087.15 1097.03 1047.71 1142.61 978.476 1172.41C909.238 1202.21 904.418 1216.67 866.293 1215.35C806.257 1213.6 532.81 1198.7 532.81 1198.7Z" fill="#FF3355"/>
  <path d="M964.015 1178.54C960.509 1177.23 880.316 1107.99 880.316 1107.99" stroke="#FFC0D1" stroke-width="7" stroke-miterlimit="10"/>
  <path d="M318.084 412.979H230.002" stroke="#FFC0D1" stroke-width="7" stroke-miterlimit="10"/>
  <path d="M331.23 472.576H227.373" stroke="#FFC0D1" stroke-width="7" stroke-miterlimit="10"/>
  <path d="M346.568 539.624L222.553 541.815" stroke="#FFC0D1" stroke-width="7" stroke-miterlimit="10"/>
  <path d="M357.523 592.209C357.523 592.209 315.893 603.165 286.97 607.547C258.048 611.929 222.552 609.738 222.552 609.738" stroke="#FFC0D1" stroke-width="7" stroke-miterlimit="10"/>
  <path d="M371.984 643.48C371.984 643.48 324.219 671.088 296.611 680.291C269.003 689.931 233.508 698.258 233.508 698.258" stroke="#FFC0D1" stroke-width="7" stroke-miterlimit="10"/>
  <path d="M870.675 1216.67L851.831 1172.41" stroke="#FFC0D1" stroke-width="7" stroke-miterlimit="10"/>
  <path d="M394.333 684.235C394.333 684.235 350.074 737.697 325.095 756.541C300.117 775.822 265.498 798.171 265.498 798.171" stroke="#FFC0D1" stroke-width="7" stroke-miterlimit="10"/>
  <path d="M441.223 734.191C441.223 734.191 432.897 791.598 414.93 852.51C398.716 908.163 375.49 959.873 364.973 981.346" stroke="#FFC0D1" stroke-width="7" stroke-miterlimit="10"/>
  <path d="M503.011 745.146C503.011 745.146 597.228 836.734 694.074 858.206C790.92 879.679 930.272 877.488 998.634 860.836" stroke="#FFC0D1" stroke-width="7" stroke-miterlimit="10"/>
  <path d="M1027.12 916.927C1027.12 916.927 842.191 943.22 685.747 888.443C529.304 833.666 478.033 786.777 456.56 758.293C435.088 729.809 421.941 711.842 421.941 711.842C421.941 711.842 380.31 782.395 362.344 807.373C344.377 832.351 300.117 870.476 300.117 870.476" stroke="#FFC0D1" stroke-width="7" stroke-miterlimit="10"/>
  <path d="M1047.71 964.693C1047.71 964.693 997.758 963.378 971.465 966.008C945.172 968.637 893.9 976.963 893.9 976.963" stroke="#FFC0D1" stroke-width="7" stroke-miterlimit="10"/>
  <path d="M1063.05 1026.92C1063.05 1026.92 990.308 1024.73 962.7 1024.73C935.093 1024.73 905.294 1031.74 905.294 1031.74" stroke="#FFC0D1" stroke-width="7" stroke-miterlimit="10"/>
  <path d="M1064.37 1116.32C1064.37 1116.32 962.7 1079.51 903.103 1067.24" stroke="#FFC0D1" stroke-width="7" stroke-miterlimit="10"/>
  <path d="M432.896 798.608C432.896 798.608 474.527 866.532 567.867 908.601C661.207 950.231 751.918 974.333 885.574 967.76" stroke="#FFC0D1" stroke-width="7" stroke-miterlimit="10"/>
  <path d="M407.042 877.488C407.042 877.488 465.325 931.388 547.709 979.154" stroke="#FFC0D1" stroke-width="7" stroke-miterlimit="10"/>
  <path d="M383.816 938.4C383.816 938.4 401.783 964.693 450.863 1012.46C499.944 1060.22 533.248 1081.7 533.248 1081.7" stroke="#FFC0D1" stroke-width="7" stroke-miterlimit="10"/>
  <path d="M875.495 944.974L900.912 997.121" stroke="black" stroke-width="8.76433" stroke-miterlimit="10" stroke-linecap="round" stroke-linejoin="round"/>
  <path d="M826.853 739.011C826.853 739.011 795.74 804.743 743.154 810.44C690.568 816.575 641.488 790.282 629.656 761.36C623.082 745.584 621.33 735.943 620.891 730.685C620.891 728.056 618.7 726.303 616.071 726.303C614.318 726.303 613.003 724.988 610.374 724.55C599.419 723.235 588.463 707.898 593.722 682.919C593.722 682.919 635.353 671.087 666.466 646.986C697.579 623.322 716.423 571.612 716.423 571.612C716.423 571.612 755.862 593.085 774.705 645.671C799.246 712.28 826.853 739.011 826.853 739.011Z" fill="white"/>
  <path d="M715.108 760.046C715.108 760.046 719.928 751.72 729.569 752.158C739.21 752.597 744.03 768.811 741.401 778.013C739.21 785.901 737.019 792.474 723.872 793.351C710.726 794.665 697.141 781.519 699.332 768.372C701.523 755.226 715.108 760.046 715.108 760.046Z" fill="#FF3355"/>
  <path d="M765.941 736.382C765.941 736.382 753.233 774.507 687.939 779.328" stroke="black" stroke-width="8.76433" stroke-miterlimit="10" stroke-linecap="round" stroke-linejoin="round"/>
  <path d="M741.839 709.213C741.839 709.213 741.839 728.494 732.198 732.877C722.558 737.259 721.243 728.056 716.423 729.809C711.602 731.562 716.423 742.517 706.782 744.27C697.141 746.023 691.444 724.989 691.444 724.989" stroke="black" stroke-width="8.76433" stroke-miterlimit="10" stroke-linecap="round" stroke-linejoin="round"/>
  <path d="M662.084 687.74C657.969 687.74 654.634 684.405 654.634 680.29C654.634 676.176 657.969 672.841 662.084 672.841C666.198 672.841 669.533 676.176 669.533 680.29C669.533 684.405 666.198 687.74 662.084 687.74Z" fill="black"/>
  <path d="M780.84 687.74C776.726 687.74 773.391 684.405 773.391 680.29C773.391 676.176 776.726 672.841 780.84 672.841C784.955 672.841 788.29 676.176 788.29 680.29C788.29 684.405 784.955 687.74 780.84 687.74Z" fill="black"/>
  <path d="M535.439 1196.07L463.572 977.839C459.19 963.817 470.145 949.794 484.606 951.108L913.182 988.795C924.137 989.671 930.711 1001.06 925.89 1010.71L834.741 1209.66C831.235 1217.54 823.348 1222.8 814.583 1222.8L583.205 1228.94C561.732 1230.69 542.013 1217.11 535.439 1196.07Z" fill="white"/>
  <path d="M692.759 1118.95C676.544 1118.95 663.398 1107.57 663.398 1093.53C663.398 1079.49 676.544 1068.11 692.759 1068.11C708.974 1068.11 722.119 1079.49 722.119 1093.53C722.119 1107.57 708.974 1118.95 692.759 1118.95Z" stroke="black" stroke-width="8.76433" stroke-miterlimit="10" stroke-linecap="round" stroke-linejoin="round"/>
  <path d="M1043.77 879.679C1043.77 879.679 973.218 865.218 938.598 841.554C903.979 817.89 832.55 747.337 826.415 739.011C820.28 730.685 879.001 747.337 882.507 748.652C886.012 749.967 1000.83 826.216 1000.83 826.216L1043.77 879.679Z" fill="#FCB643"/>
  <path d="M1072.69 885.814C1069.19 885.814 971.026 867.847 912.744 821.396C854.461 774.945 805.381 718.853 790.919 682.919C776.458 646.986 758.491 605.355 744.468 590.894C730.446 576.433 716.861 571.612 716.861 571.612" stroke="black" stroke-width="8.76433" stroke-miterlimit="10" stroke-linecap="round" stroke-linejoin="round"/>
  <path d="M682.242 550.578C682.242 550.578 654.634 547.073 640.611 563.725C626.588 580.377 608.183 618.502 601.172 637.783C594.16 657.065 583.205 678.538 555.597 685.549" stroke="black" stroke-width="8.76433" stroke-miterlimit="10" stroke-linecap="round" stroke-linejoin="round"/>
  <path d="M740.524 562.41C740.524 562.41 768.132 568.545 796.616 601.85C815.898 624.637 872.866 724.988 919.755 760.484C966.644 795.98 1003.45 821.396 1035.44 829.722C1067.87 838.048 1115.64 829.722 1115.64 829.722" stroke="black" stroke-width="8.76433" stroke-miterlimit="10" stroke-linecap="round" stroke-linejoin="round"/>
</svg>
