<svg width="163" height="180" viewBox="0 0 163 180" fill="none" xmlns="http://www.w3.org/2000/svg">
  <path d="M65.7164 94.76C65.7164 94.76 63.8462 92.8898 63.2585 87.7602C62.6707 82.684 64.5943 72.3178 70.8461 66.921C77.0978 61.5242 84.0977 60.0814 89.922 61.6845C95.7463 63.2875 98.792 65.0508 108.998 75.9513C119.204 86.8518 121.822 94.2791 130.692 97.4851C138.493 100.317 145.654 99.195 148.806 98.2867C149.18 98.1798 149.447 98.6073 149.234 98.8744C147.577 101.119 143.035 106.836 137.371 109.722C131.387 112.767 129.089 113.355 124.975 113.088C120.86 112.821 76.5101 113.408 65.7164 94.76Z" fill="#FCB643"/>
  <path d="M23.2898 31.825L42.8604 36.0927L40.4826 43.4698L37.0684 48.5301L32.374 51.3955C30.423 48.3675 26.1675 41.7505 24.753 39.5069C23.3386 37.2633 23.5743 33.3085 23.2898 31.825Z" fill="white"/>
  <path d="M37.7949 47.1025C39.819 45.4101 41.1654 43.615 42.5117 37.332" stroke="black" stroke-width="1.07" stroke-linecap="round"/>
  <path d="M17.278 2.31676L56.4559 13.3888L53.0491 39.7912L13.0195 32.126L17.278 2.31676Z" fill="white"/>
  <path d="M17.6355 3.34989L55.7322 12.8741C56.0666 12.9577 56.2837 13.2806 56.235 13.6218L52.5313 39.5479L32.6994 35.8005L13.4978 32.1721C13.145 32.1055 12.9067 31.7735 12.9565 31.4179L16.8061 3.9093C16.8615 3.51347 17.2477 3.25295 17.6355 3.34989Z" stroke="black" stroke-width="1.07" stroke-linecap="round" stroke-linejoin="round"/>
  <path d="M56.3208 13.0213L33.2503 28.949C32.9296 29.1704 32.4885 29.0738 32.2896 28.7387L17.415 3.67382" stroke="black" stroke-width="1.07" stroke-linecap="round" stroke-linejoin="round"/>
  <path d="M42.9312 22.2842L52.8682 36.4317" stroke="black" stroke-width="1.07" stroke-linecap="round" stroke-linejoin="round"/>
  <path d="M25.7524 18.9999L13.4488 28.0193" stroke="black" stroke-width="1.07" stroke-linecap="round" stroke-linejoin="round"/>
  <path d="M31.9916 12.2479L41.7874 14.207C42.2046 14.2905 42.4401 14.7354 42.251 15.1165C40.9797 17.6782 38.1589 21.5012 34.6788 20.7686C31.5833 20.1169 31.2348 14.8793 31.2161 12.8729C31.2123 12.4618 31.5885 12.1672 31.9916 12.2479Z" fill="#EF4056"/>
  <path d="M39.3101 15.9686L35.7732 17.9896L33.4995 15.2107" stroke="white" stroke-width="1.21091" stroke-linecap="round" stroke-linejoin="round"/>
  <path d="M23.6629 36.8828L30.5991 37.3315C30.543 35.7596 30.1325 35.6623 29.3914 32.8328C28.4651 29.2959 27.5388 25.4222 25.0966 25.6748C22.6545 25.9275 22.7653 28.5787 22.7653 30.5998C23.6074 34.8103 23.6629 35.5364 23.6629 36.8828Z" fill="white"/>
  <path d="M30.4761 37.781C29.5497 34.2441 28.2321 26.5616 24.9736 25.6757C22.6044 25.0316 21.8671 27.01 22.7646 31.498C23.3032 34.1909 24.5598 42.7176 29.4964 46.7567" stroke="black" stroke-width="1.07" stroke-linecap="round" stroke-linejoin="round"/>
  <path d="M64.9682 146.163C64.9682 146.163 59.5714 143.812 52.5716 132.858C45.5717 121.904 35.3124 105.607 31.3049 93.3707C27.2974 81.0809 26.0684 83.2183 27.8317 54.2037C28.1523 49.2344 27.8317 46.9367 31.0377 46.9367C34.7247 46.9367 38.3047 47.6848 38.3047 47.6848C38.3047 47.6848 38.5719 50.6236 39.7474 55.4861C40.923 60.3486 42.4726 68.3103 43.6481 73.1727C44.8237 78.0352 45.8389 81.7756 50.1136 85.8366C54.3883 89.8975 59.7317 90.2181 64.8079 91.928C69.8842 93.6379 75.4413 95.4012 78.487 95.7218C81.5327 95.989 95.1049 93.3707 98.8453 93.6913C102.586 94.0119 109.96 94.5997 116.959 98.7141C121.02 101.119 125.242 111.218 127.005 115.439C128.768 119.66 130.211 128.53 131.387 131.148C132.562 133.767 127.753 139.324 119.31 142.957C110.868 146.591 110.28 148.354 105.631 148.194C98.311 147.98 64.9682 146.163 64.9682 146.163Z" fill="#1CB0A8"/>
  <path d="M117.547 143.705C117.12 143.545 107.341 135.103 107.341 135.103" stroke="#95D5D2" stroke-width="0.853544" stroke-miterlimit="10" stroke-linecap="round"/>
  <path d="M106.166 148.354L103.868 142.957" stroke="#95D5D2" stroke-width="0.534339" stroke-miterlimit="10"/>
  <path d="M100.822 90.1112C100.822 90.1112 97.0285 98.1263 90.6164 98.8209C84.2043 99.569 78.2197 96.363 76.777 92.8363C75.9755 90.9127 75.7618 89.7372 75.7083 89.096C75.7083 88.7754 75.4412 88.5616 75.1206 88.5616C74.9068 88.5616 74.7465 88.4013 74.4259 88.3479C73.0901 88.1876 71.7542 86.3174 72.3954 83.2717C72.3954 83.2717 77.4717 81.829 81.2655 78.8901C85.0593 76.0047 87.3569 69.6995 87.3569 69.6995C87.3569 69.6995 92.166 72.3177 94.4636 78.7298C97.4559 86.8517 100.822 90.1112 100.822 90.1112Z" fill="white"/>
  <path d="M83.1895 67.1347C83.1895 67.1347 79.8231 66.7072 78.1132 68.7377C76.4033 70.7682 74.1591 75.4169 73.3042 77.768C72.4492 80.1191 71.1134 82.7374 67.7471 83.5923" stroke="black" stroke-width="1.06868" stroke-miterlimit="10" stroke-linecap="round" stroke-linejoin="round"/>
  <path d="M90.2958 68.5774C90.2958 68.5774 93.6621 69.3255 97.1353 73.3864C99.4864 76.165 106.433 88.4014 112.15 92.7295C117.868 97.0577 122.356 100.157 126.257 101.172C130.211 102.187 136.035 101.172 136.035 101.172" stroke="black" stroke-width="1.06868" stroke-miterlimit="10" stroke-linecap="round" stroke-linejoin="round"/>
  <path d="M87.197 92.6761C87.197 92.6761 87.7848 91.6609 88.9603 91.7143C90.1359 91.7677 90.7236 93.7448 90.403 94.8669C90.1359 95.8287 89.8687 96.6302 88.2657 96.7371C86.6627 96.8974 85.0062 95.2944 85.2734 93.6914C85.5405 92.0883 87.197 92.6761 87.197 92.6761Z" fill="#FF3355"/>
  <path d="M93.395 89.7907C93.395 89.7907 91.8454 94.4394 83.8838 95.0272" stroke="black" stroke-width="1.06868" stroke-miterlimit="10" stroke-linecap="round" stroke-linejoin="round"/>
  <path d="M90.4561 86.4778C90.4561 86.4778 90.4561 88.8289 89.2805 89.3632C88.105 89.8975 87.9447 88.7754 87.3569 88.9892C86.7691 89.2029 87.3569 90.5387 86.1813 90.7525C85.0058 90.9662 84.3112 88.4014 84.3112 88.4014" stroke="black" stroke-width="1.06868" stroke-miterlimit="10" stroke-linecap="round" stroke-linejoin="round"/>
  <path d="M80.7313 83.8595C80.2296 83.8595 79.8229 83.4528 79.8229 82.9511C79.8229 82.4494 80.2296 82.0427 80.7313 82.0427C81.233 82.0427 81.6396 82.4494 81.6396 82.9511C81.6396 83.4528 81.233 83.8595 80.7313 83.8595Z" fill="black"/>
  <path d="M95.2117 83.8595C94.7101 83.8595 94.3034 83.4528 94.3034 82.9511C94.3034 82.4494 94.7101 82.0427 95.2117 82.0427C95.7134 82.0427 96.1201 82.4494 96.1201 82.9511C96.1201 83.4528 95.7134 83.8595 95.2117 83.8595Z" fill="black"/>
  <path d="M38.7856 50.3565H28.0454" stroke="#95D5D2" stroke-width="0.853544" stroke-miterlimit="10" stroke-linecap="round"/>
  <path d="M40.3887 57.6235H27.7248" stroke="#95D5D2" stroke-width="0.853544" stroke-miterlimit="10" stroke-linecap="round"/>
  <path d="M42.2588 65.7989L27.137 66.0661" stroke="#95D5D2" stroke-width="0.853544" stroke-miterlimit="10" stroke-linecap="round"/>
  <path d="M43.5947 72.211C43.5947 72.211 38.5185 73.5468 34.9919 74.0812C31.4652 74.6155 27.1371 74.3483 27.1371 74.3483" stroke="#95D5D2" stroke-width="0.853544" stroke-miterlimit="10" stroke-linecap="round"/>
  <path d="M45.3579 78.4627C45.3579 78.4627 39.5336 81.829 36.1673 82.9511C32.8009 84.1267 28.4728 85.1419 28.4728 85.1419" stroke="#95D5D2" stroke-width="0.853544" stroke-miterlimit="10" stroke-linecap="round"/>
  <path d="M48.083 83.4321C48.083 83.4321 42.6862 89.951 39.6405 92.2487C36.5947 94.5998 32.3735 97.3249 32.3735 97.3249" stroke="#95D5D2" stroke-width="0.853544" stroke-miterlimit="10" stroke-linecap="round"/>
  <path d="M53.8008 89.5235C53.8008 89.5235 52.7855 96.5234 50.5947 103.951C48.6177 110.737 45.7857 117.042 44.5033 119.66" stroke="#95D5D2" stroke-width="0.853544" stroke-miterlimit="10" stroke-linecap="round"/>
  <path d="M61.3348 90.8593C61.3348 90.8593 72.8231 102.027 84.632 104.645C96.4409 107.264 113.433 106.996 121.769 104.966" stroke="#95D5D2" stroke-width="0.853544" stroke-miterlimit="10" stroke-linecap="round"/>
  <path d="M125.242 111.805C125.242 111.805 102.693 115.011 83.6167 108.332C64.5408 101.653 58.2891 95.9355 55.6708 92.4623C53.0525 88.9891 51.4495 86.7983 51.4495 86.7983C51.4495 86.7983 46.3733 95.4012 44.1825 98.4469C41.9917 101.493 36.5949 106.141 36.5949 106.141" stroke="#95D5D2" stroke-width="0.853544" stroke-miterlimit="10" stroke-linecap="round"/>
  <path d="M127.753 117.63C127.753 117.63 121.661 117.469 118.455 117.79C115.249 118.111 108.998 119.126 108.998 119.126" stroke="#95D5D2" stroke-width="0.853544" stroke-miterlimit="10" stroke-linecap="round"/>
  <path d="M129.623 125.217C129.623 125.217 120.753 124.95 117.387 124.95C114.02 124.95 110.387 125.805 110.387 125.805" stroke="#95D5D2" stroke-width="0.853544" stroke-miterlimit="10" stroke-linecap="round"/>
  <path d="M129.784 136.118C129.784 136.118 117.387 131.629 110.12 130.133" stroke="#95D5D2" stroke-width="0.853544" stroke-miterlimit="10" stroke-linecap="round"/>
  <path d="M52.7852 97.3782C52.7852 97.3782 57.8615 105.66 69.2429 110.79C80.6243 115.866 91.6851 118.805 107.982 118.004" stroke="#95D5D2" stroke-width="0.853544" stroke-miterlimit="10" stroke-linecap="round"/>
  <path d="M49.6329 106.996C49.6329 106.996 56.7396 113.569 66.7852 119.393" stroke="#95D5D2" stroke-width="0.853544" stroke-miterlimit="10" stroke-linecap="round"/>
  <path d="M46.8005 114.424C46.8005 114.424 48.9913 117.63 54.9759 123.454C60.9605 129.278 65.0215 131.897 65.0215 131.897" stroke="#95D5D2" stroke-width="0.853544" stroke-miterlimit="10" stroke-linecap="round"/>
  <path d="M106.753 115.225L109.853 121.584" stroke="black" stroke-width="1.06868" stroke-miterlimit="10" stroke-linecap="round" stroke-linejoin="round"/>
  <path d="M65.2887 145.843L56.5255 119.233C55.9912 117.523 57.327 115.813 59.0903 115.973L111.349 120.569C112.685 120.675 113.486 122.065 112.898 123.24L101.784 147.499C101.357 148.461 100.395 149.102 99.326 149.102L71.113 149.85C68.4947 150.064 66.0902 148.408 65.2887 145.843Z" fill="white"/>
  <path d="M84.4717 136.438C82.4945 136.438 80.8916 135.051 80.8916 133.339C80.8916 131.628 82.4945 130.24 84.4717 130.24C86.4489 130.24 88.0518 131.628 88.0518 133.339C88.0518 135.051 86.4489 136.438 84.4717 136.438Z" stroke="black" stroke-width="1.06868" stroke-miterlimit="10" stroke-linecap="round" stroke-linejoin="round"/>
  <path d="M127.272 107.264C127.272 107.264 118.669 105.5 114.448 102.615C110.227 99.7293 101.517 91.1265 100.769 90.1112C100.021 89.096 107.181 91.1265 107.608 91.2868C108.036 91.4471 122.035 100.745 122.035 100.745L127.272 107.264Z" fill="#FCB643"/>
  <path d="M130.799 108.012C130.371 108.012 118.402 105.821 111.295 100.157C104.189 94.4928 98.2042 87.6532 96.4408 83.2717C94.6775 78.8901 92.4867 73.8139 90.7769 72.0506C89.067 70.2872 87.4105 69.6995 87.4105 69.6995" stroke="black" stroke-width="1.06868" stroke-miterlimit="10" stroke-linecap="round" stroke-linejoin="round"/>
</svg>
