<svg width="693" height="615" viewBox="0 0 693 615" fill="none" xmlns="http://www.w3.org/2000/svg">
<path d="M191 587C167.4 577.8 194 425.667 197 353C171 192 -233.501 42.0001 403.5 140C429.691 144.03 640 292 566 429C541.027 475.234 220.5 598.5 191 587Z" fill="#FFFBE3"/>
<path d="M505.068 554.727C502.208 552.947 380.449 572.619 351.884 558.5C328.614 546.998 401.669 503.119 369.884 488.175C298.809 454.758 216.035 418.063 164.45 401.913C11.8839 354.148 -8.26839 280.965 2.38383 225.5C13.0361 170.035 46.5145 206.072 88.9966 167.741C131.479 129.411 266.914 48.6882 385.991 53.0035C505.068 57.3189 563.401 59.9843 568.6 105.042C573.8 150.099 542.224 177.26 474.252 164.568C406.281 151.876 321.063 140.072 333.998 124.207C346.933 108.215 349.438 102.884 371.884 105.042C381.592 105.975 359.163 115.331 374 110C388.837 104.669 364.565 96.1423 351.884 95C339.203 93.9846 374 101.317 307.5 124.207C237.626 159.237 195.012 169.645 185.501 212.291C175.99 254.937 239.65 337.944 325.882 382.24C412.114 426.536 537.024 491.012 531.571 501.801C526.245 512.589 505.068 554.727 505.068 554.727Z" fill="#F9BFD1"/>
<path d="M526.245 512.589C526.753 511.701 232.421 393.028 134.649 360.155C36.8769 327.282 -2.45312 261.054 12.3839 208C27.2209 154.946 63.127 124.588 176.878 81.434C290.628 38.2805 488.836 21.6537 531.445 58.0804C574.054 94.507 620.467 148.703 568.601 169.899C568.601 169.899 392.078 167.995 368.998 154.034C345.918 140.199 313.449 123.519 326.384 114C339.319 104.481 412.495 126.365 461.952 129.538C511.408 132.711 549.706 116.084 489.216 98.3147C428.727 80.5456 360.882 81.561 306.353 98.3147C265.519 110.88 230.139 133.726 191.968 158.222C153.798 182.718 116.642 210.133 122.982 255.825C129.323 301.517 242.566 301.644 313.835 328.298C385.103 354.952 545.521 474.259 545.521 474.259L526.245 512.589Z" fill="#EF4056"/>
<path d="M532.84 487.712C527.513 480.732 369.379 389.982 211.117 346.321C52.8552 302.787 -5.99303 257.983 20.3839 178.403C40.0398 119.13 25.2102 174.214 70.8626 139.184C116.515 104.153 211.37 17.8461 366.462 24.446C521.553 31.046 583.564 42.469 602.713 73.3111C621.862 104.153 646.21 148.703 602.713 157.207C559.216 165.711 467.531 172.31 416.172 161.395C356.697 148.83 290.775 118.815 298.384 114.5C298.384 114.5 409.787 135.775 431.643 139.138C453.5 142.5 535.756 152.891 549.579 131.695C563.401 110.499 527.26 79.6572 466.77 73.3111C406.281 66.965 334.125 56.0497 244.088 94.2533C186.262 118.622 143.146 152.891 105.99 178.403C60.2103 209.879 64.522 257.729 122.982 255.825C181.443 253.922 371.027 339.975 416.299 353.809C461.571 367.644 557.568 442.401 557.568 442.401L532.84 487.712Z" fill="#FCB643"/>
<path d="M544.76 449.509C544.76 449.509 405.393 352.667 302.422 331.471C199.45 310.275 48.6704 296.567 26.4783 228.156C2.76439 155.049 52.982 199.599 52.982 199.599C60.7176 195.41 52.982 170.153 110.428 123.953C170.41 75.7225 240.537 46.5304 347.06 44.4997C453.582 42.4689 537.151 48.6881 570.376 76.3572C595.992 97.6801 617.043 155.049 536.39 158.222C455.738 161.395 340.641 131.835 313.884 118C287 104.165 278.384 131 397.277 173.072C457.894 187.922 591.807 206.072 621.481 169.899C651.155 133.726 682.985 56.1765 557.695 29.6498C432.404 3.123 273.382 -4.36541 177.258 29.6498C81.1343 63.6649 44.3588 123.191 40.174 166.726C35.9892 210.26 70.2285 252.652 106.243 259.506C142.385 266.36 308.889 267.629 355.683 281.464C402.477 295.298 508.365 376.782 524.09 397.471C539.814 418.159 557.568 442.401 557.568 442.401L544.76 449.509Z" fill="#1CB0A8"/>
<path d="M517.124 374.107C484.406 340.98 423.029 261.527 312.956 231.192C204.912 201.493 130.854 208.981 99.7846 207.839C-30.9588 202.762 5.05589 130.035 22.3024 105.793C39.5488 81.5511 111.578 13.2669 327.032 1.71698C543.628 -9.95987 698.592 38.9052 692.252 118.359C685.911 197.812 541.472 224.846 450.167 204.666C312.956 174.339 266.793 124.361 272.5 117C278.08 109.512 308 125.5 352 147C396 168.5 623.266 216.343 638.103 131.305C652.94 46.2667 506.472 25.0707 375.982 22.913C255.764 21.0092 138.082 69.6204 78.607 113.282C52.4837 132.447 -23.3501 244.646 138.082 272.696C299.514 300.746 349.478 278.027 431.018 332.223C512.559 386.418 550.545 438.798 553.773 434.649C557 430.5 549.841 407.234 517.124 374.107Z" fill="#95D2FF"/>
<path d="M528.147 380.971L473.364 500.024H419.85L409.958 562.85L505.068 554.854L568.727 428.313L528.147 380.971ZM430.756 541.781L419.85 544.827L425.303 513.605H434.306L430.756 541.781ZM438.998 547.62L442.295 510.558L472.984 508.655L485.285 540.512L438.998 547.62ZM498.347 535.689L481.354 501.42L528.021 397.471L554.398 429.582L498.347 535.689Z" fill="white" stroke="white" stroke-width="3" stroke-miterlimit="10" stroke-linecap="round" stroke-linejoin="round"/>
<path d="M443.091 520.942L475.706 518.275" stroke="white" stroke-width="3" stroke-miterlimit="10" stroke-linecap="round" stroke-linejoin="round"/>
<path d="M451.699 512.333L454.852 543.372" stroke="white" stroke-width="3" stroke-miterlimit="10" stroke-linecap="round" stroke-linejoin="round"/>
<path d="M461.521 511L468.31 543.009" stroke="white" stroke-width="3" stroke-miterlimit="10" stroke-linecap="round" stroke-linejoin="round"/>
<path d="M442 535.734L479.101 531.854" stroke="white" stroke-width="3" stroke-miterlimit="10" stroke-linecap="round" stroke-linejoin="round"/>
<path d="M409.958 437.07C409.958 437.07 407.422 447.986 417.694 455.093C423.147 458.901 419.723 464.232 412.875 461.439C401.082 456.616 403.237 447.224 403.237 447.224" fill="white"/>
<path d="M409.958 437.07C409.958 437.07 407.422 447.986 417.694 455.093C423.147 458.901 419.723 464.232 412.875 461.439C401.082 456.616 403.237 447.224 403.237 447.224" stroke="white" stroke-width="3" stroke-miterlimit="10"/>
<path d="M382.821 375.005C363.038 369.675 350.23 380.971 337.549 408.64C331.462 421.713 330.701 436.055 335.9 445.955C341.607 456.87 355.302 465.628 360.882 469.435C371.534 476.543 399.814 466.77 407.549 444.813C415.411 422.728 419.596 384.905 382.821 375.005Z" fill="white" stroke="white" stroke-width="3" stroke-miterlimit="10"/>
<path d="M370.013 347.59C381.299 344.798 396.263 346.194 401.208 354.698C406.154 363.201 398.419 380.209 379.27 385.159C360.121 390.109 350.737 379.448 350.991 365.74C351.118 355.713 370.013 347.59 370.013 347.59Z" fill="#010101"/>
<path d="M400.955 442.401C402.005 442.401 402.857 441.549 402.857 440.497C402.857 439.446 402.005 438.593 400.955 438.593C399.904 438.593 399.053 439.446 399.053 440.497C399.053 441.549 399.904 442.401 400.955 442.401Z" fill="#010101"/>
<path d="M382.821 375.005C358.092 371.959 350.23 380.971 337.549 408.64C331.462 421.713 330.701 436.055 335.9 445.955C337.929 449.89 341.099 453.57 344.397 456.743C350.737 456.363 356.697 453.19 358.726 452.047C362.531 449.89 362.277 445.701 362.024 440.497C361.77 435.294 363.418 431.232 366.208 427.551C368.998 423.87 374.705 422.347 381.299 426.663C387.893 430.851 394.487 433.77 403.998 431.105C406.915 430.344 409.578 428.567 412.114 426.536C415.031 405.974 411.353 378.432 382.821 375.005Z" fill="#010101" stroke="black" stroke-width="3" stroke-miterlimit="10"/>
<path d="M382.947 442.401C382.947 442.401 378.129 458.647 385.103 468.039" stroke="#010101" stroke-width="3" stroke-miterlimit="10" stroke-linecap="round"/>
<path d="M412.875 486.189L411.227 486.316C410.973 484.285 410.593 482.255 409.959 480.351C407.93 474.385 403.364 478.447 403.364 478.447C402.73 475.908 401.969 472.989 400.955 469.562C398.292 460.043 394.234 460.17 393.346 467.405C393.093 469.943 393.346 474.132 393.853 478.574C393.093 478.32 392.585 478.32 392.585 478.32C392.585 478.32 386.879 479.082 385.991 488.728C385.103 498.501 390.176 505.735 390.176 505.735L392.585 541.273L412.748 539.116C419.343 528.327 419.723 514.874 419.723 505.608C419.723 496.343 412.875 486.189 412.875 486.189Z" fill="white" stroke="white" stroke-width="3" stroke-miterlimit="10"/>
<path d="M390.303 506.37C390.303 506.37 385.23 499.135 386.118 489.362C387.005 479.589 392.712 478.955 392.712 478.955" stroke="white" stroke-width="3" stroke-miterlimit="10" stroke-linecap="round" stroke-linejoin="round"/>
<path d="M396.77 496.089C396.77 496.089 392.585 474.766 393.346 467.405C393.98 462.201 396.136 460.678 398.292 463.597C399.179 464.739 400.067 466.77 400.828 469.562C401.842 472.989 402.603 475.909 403.237 478.447C404.379 483.016 405.14 486.57 405.647 490.885" stroke="#010101" stroke-width="3" stroke-miterlimit="10" stroke-linecap="round" stroke-linejoin="round"/>
<path d="M412.875 485.428C412.875 485.428 419.85 497.105 419.85 506.37C419.85 515.635 419.469 529.089 412.875 539.877" stroke="#010101" stroke-width="3" stroke-miterlimit="10" stroke-linecap="round"/>
<path d="M409.958 562.723L505.068 554.727L568.727 428.186L528.147 380.971" stroke="black" stroke-width="3" stroke-miterlimit="10" stroke-linecap="round" stroke-linejoin="round"/>
<path d="M184.359 508.401C184.359 508.401 278.201 456.363 306.099 451.286C333.998 446.209 339.451 452.936 352.639 463.216C386.245 489.489 380.411 502.562 381.933 537.339L390.429 510.558C390.81 509.416 392.205 508.781 393.219 509.416C398.545 512.208 420.738 521.093 422.767 528.201C422.767 528.201 463.98 620.473 370.773 613.746C326.389 610.573 316.371 576.939 316.371 576.939C316.371 576.939 262.603 608.669 214.414 604.862C166.225 601.054 184.359 508.401 184.359 508.401Z" fill="#00CB77"/>
<path d="M359.741 487.712C359.741 487.712 375.719 508.781 373.31 554.727" stroke="#010101" stroke-width="3" stroke-miterlimit="10" stroke-linecap="round"/>
<path d="M390.302 510.558C390.302 510.558 371.407 553.331 369.125 571.735" stroke="#010101" stroke-width="3" stroke-miterlimit="10" stroke-linecap="round"/>
<path d="M305.846 483.905C305.846 483.905 298.998 556.504 322.712 587.473" stroke="#010101" stroke-width="3" stroke-miterlimit="10" stroke-linecap="round"/>
<path d="M403.237 474.132C403.237 474.132 407.803 474.005 409.958 479.97C412.114 485.935 411.734 493.805 411.734 493.805" stroke="#010101" stroke-width="3" stroke-miterlimit="10" stroke-linecap="round" stroke-linejoin="round"/>
<path d="M359.741 380.971C344.397 387.444 332.476 366.375 332.476 366.375" stroke="#010101" stroke-width="3" stroke-miterlimit="10" stroke-linecap="round"/>
<path d="M344.397 364.598C344.397 364.598 359.234 394.932 373.563 395.44" stroke="#010101" stroke-width="3" stroke-miterlimit="10" stroke-linecap="round"/>
<path d="M411.607 402.167C403.364 398.486 399.433 431.74 399.433 431.74C399.433 431.74 425.303 433.771 425.557 431.74C426.825 423.997 425.81 408.386 411.607 402.167Z" fill="#010101" stroke="black" stroke-width="3" stroke-miterlimit="10" stroke-linecap="round" stroke-linejoin="round"/>
<path d="M93.0311 103.837C93.0311 103.837 -41.6161 180 202.389 213.618C251.212 234.814 115.604 266.14 88.8463 258.778C63.4839 251.798 -1.19038 203.725 4.7698 158.667C14.1539 86.4486 93.0311 103.837 93.0311 103.837Z" fill="#A5CFEE"/>
<path d="M350.884 115.5C317.284 117.5 262.551 142.667 239.384 155C239.384 149.5 242.584 135.9 255.384 125.5C271.384 112.5 305.384 91 350.884 92C396.384 93 392.884 113 350.884 115.5Z" fill="#FFC0D1"/>
</svg>
