<svg viewBox="0 0 52.25 52.25" xmlns="http://www.w3.org/2000/svg"><clipPath id="a" transform="translate(1.21 1.21)"><circle cx="24.92" cy="24.92" r="24.92"/></clipPath><circle cx="26.13" cy="26.13" fill="#fff" r="24.92"/><g clip-path="url(#a)"><path d="M26.13 2.42a23.71 23.71 0 0 1 23.72 23.71h2.41A26.13 26.13 0 0 0 26.13 0zM2.42 26.13A23.7 23.7 0 0 1 26.13 2.42V0A26.13 26.13 0 0 0 0 26.13zm23.71 23.72A23.71 23.71 0 0 1 2.42 26.13H0a26.13 26.13 0 0 0 26.13 26.13zm23.72-23.72a23.72 23.72 0 0 1-23.72 23.72v2.41a26.13 26.13 0 0 0 26.13-26.13z" fill="#e6e6e6"/></g><path d="M34.33 19.01H17.46a2 2 0 0 0-2 2v6.32a10.41 10.41 0 1 0 20.81 0v-6.36a1.93 1.93 0 0 0-1.93-2m-2.36 7.87l-5 4.73a1.32 1.32 0 0 1-1 .41 1.42 1.42 0 0 1-1-.41l-5-4.73a1.47 1.47 0 0 1 0-2.06 1.45 1.45 0 0 1 2 0l4 3.8 4-3.8a1.37 1.37 0 0 1 2 0 1.55 1.55 0 0 1 0 2.06" fill="#ef4156" fill-rule="evenodd"/></svg>